<svg xmlns="http://www.w3.org/2000/svg" version="1.1" xmlns:xlink="http://www.w3.org/1999/xlink" width="512" height="512" x="0" y="0" viewBox="0 0 512 512" style="enable-background:new 0 0 512 512" xml:space="preserve" class=""><g><path d="M364.158 229.406h-243.78a7.5 7.5 0 0 0 0 15h243.781a7.5 7.5 0 1 0-.001-15zM364.158 182.562h-243.78a7.5 7.5 0 0 0 0 15h243.781a7.5 7.5 0 1 0-.001-15zM144.328 80.662h12.91a7.5 7.5 0 0 0 0-15h-12.91c-10.979 0-20.164 5.441-25.864 15.321-7.384 12.799-7.399 31.333-.035 44.07 5.681 9.826 14.868 15.235 25.869 15.235h15.658a7.5 7.5 0 0 0 0-15h-15.65c-5.583 0-9.92-2.605-12.89-7.742-4.695-8.121-4.677-20.888.042-29.066 2.991-5.188 7.322-7.818 12.87-7.818zM194.911 134.133c1.584 3.771 4.875 6.135 8.59 6.17h.088c3.717 0 6.931-2.252 8.607-6.04.084-.19.16-.383.228-.579l20.129-58.067a7.5 7.5 0 0 0-14.173-4.913l-14.798 42.688-14.798-42.688a7.5 7.5 0 0 0-14.173 4.913l20.129 58.067c.052.152.109.302.171.449zM217.369 384.969a7.5 7.5 0 0 0 0-15h-96.991a7.5 7.5 0 0 0 0 15zM428.623 344.03a7.5 7.5 0 0 0-10.565.937l-54.857 65.535-25.921-22.029a7.499 7.499 0 0 0-10.572.858 7.5 7.5 0 0 0 .858 10.572l31.679 26.922a7.5 7.5 0 0 0 10.608-.901l59.707-71.33a7.5 7.5 0 0 0-.937-10.564z" fill="#ffffff" opacity="1" data-original="#000000" class=""></path><path d="M468.578 302.168c-13.48-13.485-29.542-23.442-47.065-29.425v-63.354a7.5 7.5 0 0 0-15 0v59.281a123.887 123.887 0 0 0-24.774-2.493c-17.105 0-33.674 3.484-48.908 10.103H120.378a7.5 7.5 0 0 0 0 15H307.34a124.74 124.74 0 0 0-12.439 10.889l-.003.003a122.87 122.87 0 0 0-16.781 20.952H120.378a7.5 7.5 0 0 0 0 15h149.624c-15.341 33.823-14.607 73.227 2.201 106.518H69.105V15h264.499l-.048 37.956c0 17.434 14.185 31.617 31.62 31.617h41.335v90.213a7.5 7.5 0 0 0 15 0l-.028-96.354c0-4.632-2.452-6.945-4.423-8.804-.348-.328-66.914-63.892-66.914-63.892l-1.022-.975C346.569 2.313 344.154 0 339.557 0H67.607c-7.445 0-13.502 6.06-13.502 13.508v28.604H21.037c-7.445 0-13.502 6.06-13.502 13.508v199.395a7.5 7.5 0 0 0 15 0V57.112h31.57v389.023c0 7.448 6.057 13.508 13.502 13.508h213.569a122.992 122.992 0 0 0 13.725 16.364 124.823 124.823 0 0 0 12.254 10.748H22.535v-197.11a7.5 7.5 0 0 0-15 0v198.602c0 7.448 6.057 13.508 13.502 13.508h311.465C347.826 508.468 364.512 512 381.74 512c32.798 0 63.637-12.782 86.842-35.996 47.845-47.926 47.845-125.906-.004-173.836zM348.592 24.992l46.694 44.581h-30.108c-9.165 0-16.62-7.454-16.62-16.608zm109.377 440.411C437.601 485.779 410.529 497 381.739 497c-15.387 0-30.282-3.208-43.926-9.303a7.413 7.413 0 0 0-.979-.449c-11.505-5.28-22.103-12.62-31.322-21.842-35.057-35.115-40.853-88.602-17.405-129.801a7.46 7.46 0 0 0 1.484-2.526 107.74 107.74 0 0 1 15.921-20.309c9.301-9.303 20.002-16.691 31.624-21.98.339-.128.669-.275.983-.449 13.561-6.006 28.349-9.165 43.62-9.165 10.275 0 20.329 1.437 29.939 4.201.115.038.231.069.348.101 17.182 5.006 32.93 14.278 45.939 27.291 42.013 42.083 42.013 110.555.004 152.634z" fill="#ffffff" opacity="1" data-original="#000000" class=""></path></g></svg>