<?xml version="1.0" encoding="UTF-8"?>
<svg id="Calque_2" data-name="Calque 2" xmlns="http://www.w3.org/2000/svg" viewBox="0 0 1445.45 544.31">
  <defs>
    <style>
      .cls-1 {
        fill: #fff;
        stroke-width: 0px;
      }
    </style>
  </defs>
  <g id="Calque_1-2" data-name="Calque 1">
    <circle class="cls-1" cx="200.73" cy="78.98" r="23.14"/>
    <polyline class="cls-1" points="630.17 177.68 668.8 247.36 601.78 196.47"/>
    <path class="cls-1" d="M1291.47,249.36l141.29-143.36c-63.12,31.63-126.24,63.26-189.35,94.89,16.02,16.16,32.04,32.31,48.06,48.47Z"/>
    <g>
      <path class="cls-1" d="M0,2.01C124.48-2.4,260.36.03,405.63,13.44c407.15,37.56,786.2,155.81,1037.36,265.05"/>
      <g>
        <path class="cls-1" d="M15.46,542.38v-229.26h32.84v104.65h.64l47.98-104.65h32.84l-44.76,91.77,53.13,137.49h-34.78l-37.35-101.75-17.71,33.17v68.59H15.46Z"/>
        <path class="cls-1" d="M193.52,542.38l51.2-229.26h27.37l51.2,229.26h-32.84l-9.66-49.27h-44.76l-9.66,49.27h-32.84ZM274.66,462.2l-16.1-83.08h-.64l-16.1,83.08h32.84Z"/>
        <path class="cls-1" d="M395.09,542.38v-229.26h52.81c38.64,0,57.96,22.43,57.96,67.3,0,13.52-2.09,25.01-6.28,34.45-4.19,9.45-11.54,17.07-22.06,22.86l35.42,104.65h-34.78l-30.59-97.89h-19.64v97.89h-32.84ZM427.94,344.03v71.48h18.68c5.8,0,10.41-.8,13.85-2.42,3.43-1.61,6.12-3.91,8.05-6.92,1.72-3,2.9-6.71,3.54-11.11.64-4.4.97-9.5.97-15.29s-.32-10.89-.97-15.29c-.64-4.4-1.93-8.21-3.86-11.43-4.08-6.01-11.81-9.02-23.18-9.02h-17.07Z"/>
        <path class="cls-1" d="M587.97,542.38v-229.26h49.27c9.02,0,16.96,1.18,23.83,3.54,6.87,2.36,13.09,6.55,18.68,12.56,5.58,6.01,9.44,13.04,11.59,21.09,2.14,8.05,3.22,18.95,3.22,32.68,0,10.3-.59,19-1.77,26.08-1.18,7.08-3.7,13.74-7.57,19.96-4.51,7.52-10.52,13.36-18.03,17.55-7.52,4.19-17.39,6.28-29.62,6.28h-16.74v89.52h-32.84ZM620.81,344.03v77.92h15.78c6.65,0,11.8-.97,15.46-2.9,3.65-1.93,6.33-4.61,8.05-8.05,1.72-3.22,2.74-7.19,3.06-11.91.32-4.72.48-9.98.48-15.78,0-5.36-.11-10.46-.32-15.29-.22-4.83-1.18-9.07-2.9-12.72-1.72-3.65-4.3-6.44-7.73-8.37-3.44-1.93-8.37-2.9-14.81-2.9h-17.07Z"/>
        <path class="cls-1" d="M774.73,542.38v-229.26h97.89v30.91h-65.04v67.3h56.67v30.91h-56.67v67.3h65.04v32.84h-97.89Z"/>
        <path class="cls-1" d="M948.28,542.38v-229.26h31.56l49.59,138.14h.64v-138.14h32.84v229.26h-30.91l-50.23-137.82h-.64v137.82h-32.84Z"/>
        <path class="cls-1" d="M1148.24,542.38v-229.26h32.84v104.65h.64l47.98-104.65h32.84l-44.76,91.77,53.13,137.49h-34.78l-37.35-101.75-17.71,33.17v68.59h-32.84Z"/>
        <path class="cls-1" d="M1335.32,367.21c0-9.23,1.61-17.39,4.83-24.47s7.51-12.99,12.88-17.71c5.15-4.51,11-7.94,17.55-10.3,6.55-2.36,13.15-3.54,19.8-3.54s13.25,1.18,19.8,3.54c6.55,2.37,12.5,5.8,17.87,10.3,5.15,4.72,9.34,10.63,12.56,17.71,3.22,7.08,4.83,15.24,4.83,24.47v121.07c0,9.66-1.61,17.93-4.83,24.79-3.22,6.87-7.41,12.56-12.56,17.07-5.37,4.72-11.33,8.27-17.87,10.63-6.55,2.36-13.15,3.54-19.8,3.54s-13.26-1.18-19.8-3.54c-6.55-2.36-12.4-5.9-17.55-10.63-5.37-4.51-9.66-10.19-12.88-17.07-3.22-6.87-4.83-15.13-4.83-24.79v-121.07ZM1368.17,488.29c0,7.94,2.2,13.79,6.6,17.55,4.4,3.76,9.6,5.63,15.62,5.63s11.21-1.88,15.62-5.63c4.4-3.75,6.6-9.6,6.6-17.55v-121.07c0-7.94-2.2-13.79-6.6-17.55-4.4-3.75-9.61-5.63-15.62-5.63s-11.22,1.88-15.62,5.63c-4.4,3.76-6.6,9.61-6.6,17.55v121.07Z"/>
      </g>
    </g>
  </g>
</svg>