<svg xmlns="http://www.w3.org/2000/svg" version="1.1" xmlns:xlink="http://www.w3.org/1999/xlink" width="512" height="512" x="0" y="0" viewBox="0 0 128 128" style="enable-background:new 0 0 512 512" xml:space="preserve" class=""><g><path d="M64 77.5a1.75 1.75 0 0 0 0-3.5 15 15 0 1 1 15-15 15.162 15.162 0 0 1-.138 2.042 2.309 2.309 0 0 1-4.589-.359v-10.2a1.75 1.75 0 1 0-3.5 0v.817a10.265 10.265 0 1 0 1.7 13.493 5.808 5.808 0 0 0 9.853-3.276A18.887 18.887 0 0 0 82.5 59 18.5 18.5 0 1 0 64 77.5Zm0-11.727A6.771 6.771 0 1 1 70.771 59 6.779 6.779 0 0 1 64 65.769Z" fill="#ffffff" opacity="1" data-original="#000000" class=""></path><path d="M122.786 48.054a1.445 1.445 0 0 0-.729-1.422c-1.1-.792-14.536-10.435-14.536-10.435v-6.679a1.75 1.75 0 0 0-1.75-1.75h-10L65.021 5.707a1.754 1.754 0 0 0-2.042 0L32.234 27.768H22.229a1.75 1.75 0 0 0-1.75 1.75V36.2S7.353 45.628 5.943 46.632a1.478 1.478 0 0 0-.729 1.422v72.817a1.788 1.788 0 0 0 1.75 1.75h114.072a1.785 1.785 0 0 0 1.75-1.75ZM8.714 117.678V51.686l46 36.635ZM64 86.547l51.04 32.574H12.96Zm9.285 1.774 46-36.635v65.992Zm44.851-40.195-10.615 8.455V40.505ZM64 9.283l25.763 18.485H38.237ZM23.979 31.268h80.042v28.1L70.166 86.331 64.941 83a1.747 1.747 0 0 0-1.882 0l-5.225 3.335-33.855-26.967Zm-3.5 25.313L9.864 48.126l10.615-7.621Z" fill="#ffffff" opacity="1" data-original="#000000" class=""></path></g></svg>