<svg xmlns="http://www.w3.org/2000/svg" version="1.1" xmlns:xlink="http://www.w3.org/1999/xlink" width="512" height="512" x="0" y="0" viewBox="0 0 32 32" style="enable-background:new 0 0 512 512" xml:space="preserve" class=""><g><g fill="#414753"><path d="M30 2v28H2V2zm1-1H1v30h30z" fill="#ffffff" opacity="1" data-original="#414753" class=""></path><path d="M30 2v28H2V2zm1-1H1v30h30z" fill="#ffffff" opacity="1" data-original="#414753" class=""></path><path d="M23.872 22.524v-5.822c0-3.119-1.665-4.571-3.885-4.571-1.792 0-2.594.986-3.042 1.677V12.37H13.57c.045.953 0 10.154 0 10.154h3.375v-5.671c0-.303.022-.606.111-.823.244-.606.799-1.234 1.731-1.234 1.222 0 1.71.931 1.71 2.296v5.433zm-13.857-11.54c1.177 0 1.91-.78 1.91-1.755-.022-.996-.733-1.754-1.887-1.754s-1.91.758-1.91 1.754c0 .975.733 1.755 1.866 1.755zm1.687 11.54V12.37H8.327v10.154z" fill="#ffffff" opacity="1" data-original="#414753" class=""></path></g></g></svg>